<?xml version="1.0" standalone="no"?>
<!DOCTYPE svg PUBLIC "-//W3C//DTD SVG 20010904//EN"
 "http://www.w3.org/TR/2001/REC-SVG-20010904/DTD/svg10.dtd">
<svg version="1.0" xmlns="http://www.w3.org/2000/svg"
 width="1318.000000pt" height="1121.000000pt" viewBox="0 0 1318.000000 1121.000000"
 preserveAspectRatio="xMidYMid meet">

<g transform="translate(0.000000,1121.000000) scale(0.100000,-0.100000)"
fill="#000000" stroke="none">
<path d="M6570 10223 c-41 -70 -77 -133 -78 -141 -7 -27 22 -32 176 -32 128 0
154 2 159 15 11 29 -138 285 -166 285 -10 0 -45 -49 -91 -127z"/>
<path d="M6333 8007 c-7 -11 -21 -117 -33 -242 -6 -60 -13 -132 -16 -160 -3
-27 -11 -109 -18 -182 -7 -75 -18 -139 -26 -147 -10 -13 -35 -16 -122 -16 -60
0 -118 -5 -128 -10 -33 -17 -166 -25 -175 -10 -8 13 -26 479 -25 623 1 90 -13
113 -78 122 -35 5 -60 2 -87 -9 -20 -9 -55 -16 -77 -16 -43 0 -228 -35 -269
-51 -28 -11 -43 -34 -59 -89 -16 -54 -40 -186 -50 -280 -5 -46 -14 -105 -19
-130 -6 -25 -24 -135 -41 -245 -16 -110 -35 -220 -40 -243 -6 -24 -15 -89 -21
-145 -5 -55 -12 -103 -14 -107 -7 -11 -45 -255 -45 -289 0 -19 -6 -60 -14 -90
-31 -120 -47 -247 -44 -346 l3 -100 95 -5 95 -5 1 -63 c1 -35 6 -68 11 -73 6
-6 51 -14 101 -19 85 -9 166 -22 309 -51 72 -14 90 -6 95 44 2 25 8 33 28 35
14 2 31 9 38 14 8 7 16 7 27 -2 21 -17 38 -4 25 21 -11 20 -50 27 -50 9 0 -13
-76 -13 -101 0 -10 6 -19 17 -19 25 0 11 13 15 54 15 30 0 58 5 61 10 3 6 17
10 30 10 13 0 27 -4 30 -10 9 -15 41 -12 55 5 16 19 39 19 61 -1 21 -19 69
-10 50 9 -6 6 -11 14 -11 18 0 9 107 23 153 20 21 -2 43 2 50 8 7 5 37 10 67
9 30 0 94 2 142 5 67 3 90 1 99 -9 15 -18 43 -18 59 1 14 17 50 21 50 5 0 -5
10 -15 22 -21 18 -10 24 -8 38 8 13 16 28 20 93 20 68 0 77 -2 77 -19 0 -14
-8 -18 -34 -18 -25 0 -35 -5 -39 -20 -5 -20 -12 -21 -209 -20 -112 1 -237 -4
-278 -9 -128 -19 -193 -31 -259 -48 -59 -15 -64 -15 -73 0 -10 18 -43 23 -53
8 -3 -5 5 -13 17 -16 l21 -7 -24 -19 c-13 -10 -37 -21 -54 -25 -53 -12 -105
-43 -105 -64 0 -11 -12 -24 -27 -32 -21 -10 -31 -26 -45 -78 -29 -104 -46
-170 -63 -250 -9 -41 -25 -104 -36 -140 -21 -73 -54 -196 -93 -355 -9 -33 -20
-80 -27 -105 -6 -25 -17 -67 -24 -95 -45 -181 -60 -236 -72 -280 -15 -50 -20
-75 -67 -280 -14 -60 -32 -132 -40 -160 -46 -157 -58 -200 -81 -300 -14 -60
-32 -135 -41 -165 -27 -93 -32 -112 -49 -195 -10 -44 -23 -100 -30 -125 -7
-25 -20 -76 -29 -115 -24 -100 -55 -206 -69 -234 -14 -27 -68 -45 -267 -85
-36 -8 -101 -21 -145 -31 -44 -9 -96 -20 -115 -24 -48 -10 -72 -27 -100 -70
-13 -20 -34 -47 -46 -61 -13 -14 -33 -40 -46 -57 -55 -77 -123 -169 -133 -179
-5 -7 -25 -32 -43 -55 -18 -24 -56 -75 -85 -113 -29 -38 -61 -81 -72 -96 -80
-109 -99 -131 -118 -135 -12 -3 -87 -14 -167 -25 -80 -11 -158 -25 -175 -30
-16 -5 -95 -18 -175 -30 -80 -11 -170 -25 -200 -31 -30 -5 -113 -18 -185 -30
-158 -25 -165 -27 -165 -44 0 -18 47 -19 755 -23 319 -1 1176 -7 1905 -12 729
-5 2074 -14 2990 -20 916 -5 1712 -13 1770 -17 211 -14 475 1 379 21 -31 6
-85 16 -129 22 -19 3 -71 14 -115 24 -44 10 -134 28 -200 40 -163 28 -276 48
-360 66 -38 8 -99 19 -135 25 -116 18 -135 33 -231 172 -74 108 -79 115 -260
357 -10 14 -47 68 -83 120 -35 52 -75 105 -88 118 -24 22 -94 43 -253 76 -44
9 -93 21 -110 26 -16 5 -74 19 -127 32 -111 26 -111 27 -128 136 -6 37 -15 81
-20 97 -20 69 -34 123 -41 165 -15 88 -28 146 -49 230 -20 80 -41 168 -59 251
-4 19 -11 41 -15 47 -4 7 -11 33 -16 60 -4 26 -16 79 -25 117 -15 65 -30 137
-56 274 -5 30 -12 58 -15 63 -3 4 -9 29 -14 56 -5 26 -16 76 -24 112 -8 36
-19 88 -25 115 -5 28 -20 86 -31 130 -30 113 -37 141 -50 215 -6 36 -17 88
-25 115 -17 63 -55 235 -66 298 -4 26 -12 62 -18 80 -5 17 -14 52 -20 77 -6
25 -20 77 -30 115 -28 101 -35 186 -19 207 10 14 40 20 133 28 66 6 138 15
160 20 22 5 67 10 101 10 33 0 65 5 72 12 7 7 12 37 12 68 0 31 5 61 12 68 7
7 40 12 79 12 96 0 103 9 95 124 -7 86 -24 235 -46 384 -5 37 -11 85 -13 107
-3 22 -7 49 -10 60 -2 11 -8 45 -11 75 -4 30 -11 78 -16 105 -5 28 -11 86 -14
130 -6 81 -28 266 -45 365 -5 30 -12 78 -15 105 -11 100 -43 336 -56 415 -5
30 -12 83 -16 117 -7 71 -15 81 -70 87 -21 3 -111 17 -199 31 -226 36 -294 41
-299 24 -7 -24 -36 -408 -42 -568 l-7 -153 -46 7 c-25 4 -127 10 -226 14
l-180 6 -2 25 c-1 14 -10 175 -19 359 -14 270 -21 337 -33 352 -15 17 -38 18
-294 21 -154 2 -281 -1 -284 -5z m31 -996 c29 -32 11 -41 -88 -41 -51 0 -96
-3 -99 -7 -10 -10 -397 -14 -397 -4 0 13 38 21 112 21 37 0 70 5 73 10 4 7 24
8 51 4 32 -5 51 -2 68 10 18 11 27 12 32 5 4 -7 21 -9 48 -4 22 4 68 10 101
15 33 4 65 8 71 8 6 1 19 -7 28 -17z m855 -23 c30 -33 32 -61 3 -35 -10 8 -25
17 -34 20 -19 7 -25 47 -9 47 6 0 23 -14 40 -32z m148 -20 c14 -16 14 -18 0
-24 -21 -8 -77 35 -77 58 0 19 1 19 31 1 17 -10 37 -26 46 -35z m-887 22 c0
-4 -7 -10 -15 -13 -16 -7 -29 8 -20 23 6 10 35 2 35 -10z m370 5 c10 -13 9
-15 -9 -15 -12 0 -21 6 -21 15 0 8 4 15 9 15 5 0 14 -7 21 -15z m146 -16 c9
-11 15 -21 12 -24 -9 -9 -68 26 -68 40 0 18 34 8 56 -16z m98 20 c26 -12 40
-35 31 -50 -5 -6 -57 11 -84 28 -7 4 8 33 18 33 6 0 21 -5 35 -11z m396 -49
c0 -5 -7 -10 -15 -10 -8 0 -15 5 -15 10 0 6 7 10 15 10 8 0 15 -4 15 -10z
m-655 -920 c3 -11 13 -20 21 -20 17 0 94 -73 94 -89 0 -16 -20 -14 -26 3 -7
18 -59 40 -79 32 -8 -3 -15 -15 -15 -26 0 -27 -14 -25 -44 5 -23 23 -33 25
-106 25 -77 0 -81 -1 -90 -25 -8 -22 -15 -25 -57 -24 -39 1 -42 3 -19 8 20 4
34 18 51 50 l22 45 87 2 c59 1 93 6 109 17 30 22 44 21 52 -3z m-392 -12 c50
3 87 -4 87 -16 -1 -27 -18 -33 -59 -22 -31 8 -46 8 -56 0 -9 -8 -29 -8 -64 -2
-32 6 -53 6 -60 -1 -6 -6 -25 -6 -55 2 -36 9 -50 8 -66 -1 -16 -11 -23 -10
-37 4 -9 10 -14 20 -11 23 3 4 47 8 98 10 50 2 95 6 98 10 4 3 23 3 42 -1 19
-4 57 -7 83 -6z m567 -39 c0 -10 -6 -19 -13 -19 -22 0 -27 11 -16 32 12 22 29
15 29 -13z m-1330 7 c0 -3 -4 -8 -10 -11 -5 -3 -10 -1 -10 4 0 6 5 11 10 11 6
0 10 -2 10 -4z m125 -6 c-3 -5 -13 -10 -21 -10 -8 0 -14 5 -14 10 0 6 9 10 21
10 11 0 17 -4 14 -10z m125 0 c0 -5 -2 -10 -4 -10 -3 0 -8 5 -11 10 -3 6 -1
10 4 10 6 0 11 -4 11 -10z m125 0 c-3 -5 -10 -10 -16 -10 -5 0 -9 5 -9 10 0 6
7 10 16 10 8 0 12 -4 9 -10z m1070 0 c3 -5 -1 -10 -10 -10 -9 0 -13 5 -10 10
3 6 8 10 10 10 2 0 7 -4 10 -10z m135 -10 c0 -5 -6 -10 -14 -10 -8 0 -18 5
-21 10 -3 6 3 10 14 10 12 0 21 -4 21 -10z m350 0 c0 -5 -4 -10 -10 -10 -5 0
-10 5 -10 10 0 6 5 10 10 10 6 0 10 -4 10 -10z m-1270 -20 c0 -5 -4 -10 -10
-10 -5 0 -10 5 -10 10 0 6 5 10 10 10 6 0 10 -4 10 -10z m124 -16 c9 -23 8
-24 -19 -24 -27 0 -32 9 -13 28 16 16 25 15 32 -4z m604 -12 c2 -7 -3 -12 -12
-12 -9 0 -16 7 -16 16 0 17 22 14 28 -4z m112 3 c10 -12 10 -15 -4 -15 -9 0
-16 7 -16 15 0 8 2 15 4 15 2 0 9 -7 16 -15z m126 4 c8 -14 -18 -31 -30 -19
-9 9 0 30 14 30 5 0 12 -5 16 -11z m-1606 -20 c36 -4 71 -8 78 -8 7 -1 10 -6
7 -12 -4 -6 -13 -8 -21 -5 -8 3 -33 -1 -56 -8 -25 -9 -47 -11 -57 -6 -9 5 -33
12 -54 15 l-38 6 23 19 c13 11 30 17 38 13 8 -3 44 -10 80 -14z m2084 0 c-3
-5 -10 -7 -15 -3 -5 3 -7 10 -3 15 3 5 10 7 15 3 5 -3 7 -10 3 -15z m126 1 c0
-5 -7 -10 -15 -10 -8 0 -15 5 -15 10 0 6 7 10 15 10 8 0 15 -4 15 -10z m-1805
-219 c0 -14 -77 -24 -107 -15 -34 10 -17 23 35 27 66 4 72 3 72 -12z m-165
-73 c0 -35 -13 -36 -34 -3 -25 38 -21 56 9 42 18 -9 25 -20 25 -39z m100 6 c0
-14 -4 -23 -10 -19 -5 3 -10 15 -10 26 0 10 5 19 10 19 6 0 10 -12 10 -26z
m120 -14 c0 -5 -7 -10 -16 -10 -8 0 -12 5 -9 10 3 6 10 10 16 10 5 0 9 -4 9
-10z m-170 -40 c0 -23 -22 -27 -39 -7 -13 16 -5 27 21 27 11 0 18 -7 18 -20z
m120 -6 c0 -18 -24 -18 -39 0 -10 11 -8 15 6 18 23 6 33 0 33 -18z m-380 6 c0
-5 -4 -10 -10 -10 -5 0 -10 5 -10 10 0 6 5 10 10 10 6 0 10 -4 10 -10z m133 3
c-7 -2 -19 -2 -25 0 -7 3 -2 5 12 5 14 0 19 -2 13 -5z m181 -52 c3 -4 3 -11 0
-14 -8 -8 -34 3 -34 14 0 11 27 12 34 0z m240 -1707 c9 -8 16 -17 16 -19 0
-19 -33 -123 -45 -141 -8 -13 -15 -29 -15 -35 0 -7 -8 -21 -17 -31 -10 -11
-16 -32 -15 -50 2 -30 2 -30 -35 -23 -46 8 -53 12 -53 31 0 16 -16 19 -25 5
-3 -5 8 -24 25 -43 37 -40 39 -85 4 -80 -12 2 -24 -4 -27 -13 -8 -19 -25 -19
-46 -1 -9 7 -26 17 -38 20 -18 6 -25 2 -34 -18 -11 -24 -12 -24 -46 -8 -25 12
-38 13 -51 6 -32 -21 -20 -46 28 -62 67 -22 75 -27 72 -49 -5 -36 27 -51 118
-55 78 -4 86 -6 98 -28 8 -16 11 -41 6 -70 -3 -25 -7 -58 -8 -75 -1 -16 -6
-43 -12 -60 -26 -70 -34 -104 -34 -137 0 -69 7 -68 -364 -68 -344 0 -356 -1
-356 -41 0 -23 -19 -34 -33 -20 -14 14 -64 14 -72 1 -19 -30 -93 4 -120 54
-11 20 -28 39 -37 42 -25 7 -23 34 2 34 11 0 20 -4 20 -10 0 -17 41 -33 53
-21 8 8 5 19 -9 38 -11 16 -31 43 -44 60 -30 41 -21 52 19 22 l30 -22 30 31
c16 18 38 32 49 32 11 0 22 7 26 15 3 9 18 15 38 15 18 0 46 7 61 15 25 13 31
13 53 -1 21 -14 35 -15 107 -4 45 6 100 21 122 32 21 12 55 21 75 22 41 1 42
17 2 30 -41 13 -136 7 -145 -9 -5 -10 -13 -11 -36 -2 -24 9 -33 7 -60 -12 -32
-23 -51 -21 -51 5 0 9 10 14 30 14 16 0 33 6 37 14 4 8 17 15 28 17 12 3 22
15 26 34 12 54 38 102 63 118 13 9 27 25 31 36 3 11 22 26 41 33 43 15 79 77
70 121 -4 22 -1 33 14 45 17 14 21 32 25 92 3 72 20 138 39 152 9 6 77 10 121
7 58 -4 149 5 190 19 41 14 42 14 59 -4z m466 -354 c0 -5 -4 -10 -10 -10 -5 0
-10 5 -10 10 0 6 5 10 10 10 6 0 10 -4 10 -10z m-282 -68 c29 -32 39 -49 32
-56 -18 -18 -84 27 -90 60 -4 21 -12 30 -28 32 -12 2 -20 7 -17 11 12 20 63
-4 103 -47z m-143 18 c0 -10 -8 -14 -24 -12 -30 3 -35 7 -26 22 10 16 50 8 50
-10z m-120 0 c3 -5 -1 -10 -10 -10 -9 0 -13 5 -10 10 3 6 8 10 10 10 2 0 7 -4
10 -10z m373 -13 c2 -11 -3 -17 -16 -17 -20 0 -36 23 -24 34 11 12 37 1 40
-17z m-308 -46 c0 -14 -18 -23 -30 -16 -6 4 -8 11 -5 16 8 12 35 12 35 0z
m114 -12 c-3 -5 -10 -7 -15 -3 -5 3 -7 10 -3 15 3 5 10 7 15 3 5 -3 7 -10 3
-15z m363 -21 c-3 -7 -5 -2 -5 12 0 14 2 19 5 13 2 -7 2 -19 0 -25z m613 6 c0
-14 -4 -23 -10 -19 -5 3 -10 15 -10 26 0 10 5 19 10 19 6 0 10 -12 10 -26z
m230 7 c0 -22 16 -36 51 -45 15 -3 29 -13 33 -21 4 -11 -2 -15 -25 -15 -17 0
-39 5 -49 10 -13 7 -21 7 -25 0 -8 -13 -95 -13 -95 -1 0 6 -21 11 -47 13 -27
2 -47 8 -45 13 2 10 12 11 115 14 48 1 57 4 57 19 0 10 3 22 7 25 12 13 23 7
23 -12z m-120 -1 c0 -5 -4 -10 -9 -10 -6 0 -13 5 -16 10 -3 6 1 10 9 10 9 0
16 -4 16 -10z m310 -65 c10 -12 9 -16 -4 -21 -24 -9 -47 3 -40 21 8 19 28 19
44 0z m-2650 -465 c0 -5 -2 -10 -4 -10 -3 0 -8 5 -11 10 -3 6 -1 10 4 10 6 0
11 -4 11 -10z m50 -51 c0 -5 -7 -9 -15 -9 -8 0 -15 7 -15 15 0 9 6 12 15 9 8
-4 15 -10 15 -15z m1155 -4 c72 -2 105 -18 105 -52 0 -16 -5 -35 -10 -43 -7
-12 -11 -9 -20 17 -14 40 -37 49 -64 24 -15 -14 -27 -17 -43 -11 -15 6 -25 4
-34 -6 -8 -9 -21 -13 -35 -10 -13 4 -26 2 -29 -4 -3 -5 -15 -10 -26 -10 -23 0
-25 -25 -2 -34 10 -4 29 2 46 14 32 25 32 25 41 -13 5 -20 2 -29 -9 -33 -25
-10 -17 -46 17 -74 37 -31 35 -66 -3 -51 -15 5 -33 3 -51 -6 -19 -10 -39 -12
-61 -7 -17 4 -41 7 -52 5 -16 -1 -20 5 -21 30 -1 17 -8 36 -17 40 -8 5 -17 20
-21 33 -6 25 -47 41 -64 24 -15 -15 -3 -44 23 -56 12 -6 32 -24 44 -41 19 -27
20 -31 6 -31 -9 0 -47 32 -84 70 -38 39 -73 70 -80 70 -13 0 -70 -62 -86 -94
-8 -14 -19 -20 -35 -18 -13 1 -34 -5 -47 -14 -16 -10 -34 -13 -54 -9 -20 5
-38 1 -54 -9 -13 -9 -36 -16 -51 -16 -17 0 -28 -6 -31 -19 -4 -17 -7 -18 -34
-4 -17 8 -33 12 -37 8 -17 -17 -47 -137 -62 -247 -5 -37 -15 -77 -23 -90 -8
-13 -18 -45 -22 -73 -4 -27 -13 -58 -21 -69 -19 -28 -18 -56 4 -72 16 -12 16
-14 -5 -29 -13 -9 -23 -27 -23 -41 0 -33 -26 -41 -63 -20 -27 15 -32 15 -39 2
-8 -13 -66 -15 -455 -16 -245 0 -474 3 -509 6 -69 7 -78 24 -13 24 22 0 50 5
61 11 15 8 30 8 57 -1 45 -14 111 9 111 39 0 11 9 23 20 26 11 3 32 22 46 41
31 40 41 42 53 10 9 -21 29 -36 51 -36 15 0 19 29 7 59 -10 26 -8 37 8 69 10
20 26 45 34 55 8 9 19 26 25 36 6 10 19 30 29 44 14 20 16 30 8 45 -12 22 -6
32 20 32 11 0 21 10 25 24 3 13 17 34 30 47 13 12 24 28 24 34 0 7 9 24 21 39
14 18 19 34 15 51 -5 20 -2 24 21 27 26 3 28 6 27 43 -1 22 -3 48 -5 59 -3 15
9 23 61 43 36 13 78 28 94 33 15 5 33 16 40 24 13 17 118 48 138 41 7 -3 31 1
52 9 24 8 50 11 65 6 27 -7 133 9 147 23 4 4 13 2 19 -3 7 -6 30 -10 51 -9 44
0 95 0 138 -2 18 -1 34 5 43 17 13 17 15 17 42 1 32 -19 81 -23 81 -7 0 6 -4
10 -10 10 -5 0 -10 5 -10 10 0 19 34 10 60 -15 31 -29 65 -25 55 6 -5 15 -1
19 15 19 11 0 23 -7 26 -15 7 -17 59 -20 70 -4 4 7 24 9 53 5 31 -3 54 -1 71
9 14 8 34 12 45 8 11 -3 43 -7 70 -8z m83 -125 c37 -23 42 -54 10 -71 -19 -10
-25 -8 -43 15 -26 33 -49 33 -63 0 -15 -31 -32 -23 -32 17 0 24 4 29 25 29 14
0 28 7 31 15 8 20 33 19 72 -5z m-1671 -302 c-3 -8 -6 -5 -6 6 -1 11 2 17 5
13 3 -3 4 -12 1 -19z m-57 -58 c0 -5 -2 -10 -4 -10 -3 0 -8 5 -11 10 -3 6 -1
10 4 10 6 0 11 -4 11 -10z m-96 -228 c6 -10 -19 -43 -27 -35 -13 12 -7 43 7
43 8 0 17 -3 20 -8z m815 -271 c-15 -5 -22 6 -14 19 6 9 10 9 16 -1 5 -8 4
-15 -2 -18z"/>
<path d="M6051 3594 c0 -11 3 -14 6 -6 3 7 2 16 -1 19 -3 4 -6 -2 -5 -13z"/>
<path d="M6016 3533 c-13 -13 -5 -39 19 -66 14 -15 29 -27 33 -27 18 1 32 18
26 33 -7 20 -70 68 -78 60z"/>
<path d="M3988 5703 c12 -2 32 -2 45 0 12 2 2 4 -23 4 -25 0 -35 -2 -22 -4z"/>
<path d="M3768 5473 c6 -2 18 -2 25 0 6 3 1 5 -13 5 -14 0 -19 -2 -12 -5z"/>
<path d="M3838 5473 c6 -2 18 -2 25 0 6 3 1 5 -13 5 -14 0 -19 -2 -12 -5z"/>
<path d="M3745 5390 c-3 -5 1 -10 10 -10 9 0 13 5 10 10 -3 6 -8 10 -10 10 -2
0 -7 -4 -10 -10z"/>
<path d="M3683 5273 c15 -2 37 -2 50 0 12 2 0 4 -28 4 -27 0 -38 -2 -22 -4z"/>
<path d="M3768 5273 c7 -3 16 -2 19 1 4 3 -2 6 -13 5 -11 0 -14 -3 -6 -6z"/>
<path d="M4729 1234 c-62 -19 -131 -81 -160 -146 -20 -45 -24 -69 -24 -158 0
-148 33 -224 122 -280 135 -86 329 -47 414 82 56 84 65 251 19 356 -57 131
-217 194 -371 146z m190 -70 c44 -36 64 -114 64 -239 0 -122 -14 -176 -58
-223 -31 -34 -38 -37 -88 -37 -91 0 -131 52 -147 191 -16 148 17 286 78 318
45 25 115 20 151 -10z"/>
<path d="M6094 1232 c-133 -47 -190 -150 -182 -326 10 -197 108 -299 288 -299
175 0 285 108 297 294 10 145 -46 263 -150 315 -68 35 -181 42 -253 16z m176
-57 c54 -28 74 -84 78 -221 5 -146 -11 -214 -58 -259 -27 -26 -39 -30 -86 -30
-51 0 -58 3 -89 37 -44 48 -58 101 -59 223 -1 180 44 265 140 265 25 0 58 -7
74 -15z"/>
<path d="M6742 1241 c-93 -24 -147 -96 -140 -187 7 -80 38 -114 162 -173 59
-28 113 -61 125 -77 30 -38 27 -79 -8 -115 -25 -25 -37 -29 -81 -29 -45 0 -56
4 -81 31 -17 18 -32 47 -35 70 -8 47 -14 52 -50 39 -53 -21 -67 -65 -38 -121
45 -89 265 -99 365 -17 34 28 59 83 59 131 0 89 -30 122 -177 196 -133 66
-163 115 -109 177 47 56 138 24 152 -53 5 -28 10 -33 36 -33 33 0 78 39 78 67
0 27 -27 61 -61 79 -36 18 -150 27 -197 15z"/>
<path d="M7819 1234 c-87 -26 -142 -120 -119 -204 17 -64 55 -98 167 -152 56
-27 109 -59 118 -71 15 -22 20 -73 9 -102 -9 -24 -58 -45 -102 -45 -63 0 -98
37 -116 123 -8 32 -20 34 -63 7 -28 -17 -33 -25 -33 -59 0 -76 76 -125 194
-125 170 1 277 111 237 244 -15 50 -55 83 -168 137 -99 47 -133 79 -133 125 0
43 15 65 53 77 59 20 105 -12 122 -81 6 -22 13 -28 34 -28 68 0 97 75 48 124
-43 42 -162 57 -248 30z"/>
<path d="M2510 1222 c0 -13 9 -22 27 -27 53 -13 53 -11 53 -262 0 -142 -4
-242 -10 -254 -7 -12 -21 -19 -40 -19 -25 0 -30 -4 -30 -25 l0 -25 150 0 150
0 0 24 c0 21 -5 25 -37 28 l-38 3 -3 108 -3 107 30 0 c28 0 34 -7 78 -92 67
-128 94 -156 164 -168 31 -6 119 -9 195 -8 131 3 139 4 139 23 0 14 -8 21 -29
25 -46 8 -52 29 -30 96 l19 59 109 0 109 0 21 -58 c23 -66 16 -90 -28 -95 -20
-3 -26 -9 -26 -28 l0 -25 142 3 c125 3 143 5 146 20 2 12 -8 22 -31 32 -39 16
-29 -7 -150 336 l-84 235 -60 3 c-58 3 -61 2 -71 -25 -6 -15 -52 -138 -101
-272 -50 -134 -98 -252 -107 -262 -21 -23 -72 -25 -102 -3 -22 15 -142 209
-142 228 0 6 16 21 35 33 73 48 96 161 47 231 -40 56 -85 66 -299 70 -186 3
-193 3 -193 -16z m347 -66 c18 -22 23 -39 23 -87 0 -96 -26 -128 -102 -129
l-48 0 0 126 0 127 52 -5 c40 -4 57 -11 75 -32z m592 -138 c19 -62 36 -121 38
-130 5 -16 -4 -18 -81 -18 -47 0 -86 3 -86 8 -1 15 84 252 90 252 3 0 21 -51
39 -112z"/>
<path d="M3793 1225 c-7 -20 1 -28 35 -32 49 -7 52 -19 52 -259 0 -123 -4
-234 -9 -248 -8 -18 -19 -25 -43 -28 -25 -2 -33 -8 -33 -23 0 -19 7 -20 150
-20 143 0 150 1 150 20 0 15 -8 21 -33 23 -44 4 -53 31 -50 151 l3 96 118 3
117 3 -1 -98 c-1 -134 -6 -147 -52 -151 -32 -3 -37 -7 -37 -28 l0 -25 153 3
c144 3 152 4 152 23 0 15 -8 21 -33 23 -24 3 -35 10 -43 28 -12 33 -12 445 0
477 7 17 20 26 46 31 27 5 35 12 33 24 -3 15 -22 17 -156 20 -144 2 -152 2
-152 -17 0 -14 10 -21 37 -28 45 -10 51 -26 52 -140 l1 -83 -120 0 -120 0 0
84 c0 110 9 132 54 140 27 5 36 12 36 26 0 19 -8 20 -150 20 -127 0 -152 -2
-157 -15z"/>
<path d="M5210 1222 c0 -13 11 -21 38 -28 l37 -9 3 -249 c2 -175 -1 -253 -9
-262 -6 -8 -24 -14 -40 -14 -25 0 -29 -4 -29 -26 l0 -26 188 4 c215 5 263 18
328 90 61 68 78 119 79 233 0 117 -18 168 -80 228 -63 61 -133 77 -341 77
-162 0 -174 -1 -174 -18z m346 -51 c74 -34 104 -101 104 -236 0 -175 -62 -265
-184 -265 l-46 0 0 260 0 260 43 0 c23 0 60 -9 83 -19z"/>
<path d="M7320 1221 c0 -14 10 -21 38 -28 l37 -9 3 -239 c1 -132 0 -250 -3
-262 -4 -18 -12 -23 -40 -23 -31 0 -35 -3 -35 -25 l0 -26 153 3 c144 3 152 4
152 23 0 15 -8 21 -33 23 -24 3 -35 10 -43 28 -5 14 -9 125 -9 248 0 241 3
257 53 259 27 2 42 21 31 38 -3 5 -72 9 -155 9 -140 0 -149 -1 -149 -19z"/>
<path d="M8190 1221 c0 -13 9 -21 30 -26 17 -4 35 -15 40 -25 14 -25 13 -465
0 -491 -7 -12 -21 -19 -39 -19 -29 0 -42 -14 -34 -37 4 -10 64 -13 257 -13
l253 0 7 90 c7 98 5 110 -24 110 -13 0 -22 -11 -29 -37 -6 -21 -11 -44 -11
-50 0 -7 -9 -22 -20 -33 -17 -17 -33 -20 -115 -20 l-95 0 2 258 3 257 38 9
c26 7 37 15 37 28 0 17 -12 18 -150 18 -141 0 -150 -1 -150 -19z"/>
<path d="M9010 1237 c0 -20 -202 -543 -215 -558 -10 -10 -27 -19 -37 -19 -14
0 -19 -6 -16 -22 3 -22 7 -23 113 -23 106 0 110 1 113 23 3 18 -1 22 -26 22
-50 0 -59 22 -36 93 l20 62 107 3 106 3 17 -38 c36 -87 30 -122 -23 -123 -18
0 -23 -6 -23 -25 l0 -26 142 3 c125 3 143 5 146 20 2 12 -8 22 -31 31 -38 16
-28 -6 -160 367 l-72 205 -63 3 c-34 2 -62 1 -62 -1z m73 -229 c20 -68 37
-126 37 -130 0 -5 -38 -8 -85 -8 -47 0 -85 3 -85 7 0 14 85 253 90 253 3 0 22
-55 43 -122z"/>
<path d="M9425 1230 c-10 -16 3 -28 35 -35 17 -4 35 -15 40 -25 6 -11 10 -115
10 -247 0 -249 -2 -259 -55 -265 -22 -2 -30 -8 -30 -23 0 -19 8 -20 113 -23
l112 -3 0 26 c0 21 -5 25 -30 25 -19 0 -33 7 -40 19 -14 28 -14 419 1 404 6
-6 84 -114 173 -239 l162 -229 39 0 40 0 3 280 c1 153 6 283 10 287 4 4 20 9
36 12 35 6 40 11 33 31 -5 12 -26 15 -117 15 -101 0 -110 -2 -110 -19 0 -14
10 -21 36 -25 19 -4 37 -13 40 -19 2 -7 3 -93 2 -190 l-3 -178 -153 216 -152
215 -95 0 c-52 0 -97 -4 -100 -10z"/>
<path d="M10120 1220 c0 -11 3 -20 8 -21 17 -2 44 -8 58 -13 12 -4 14 -48 14
-254 0 -267 -1 -272 -52 -272 -24 0 -28 -4 -28 -26 l0 -26 188 4 c212 5 258
17 325 86 63 64 82 121 82 242 0 99 -2 108 -31 160 -37 65 -102 114 -174 129
-28 6 -127 11 -220 11 -163 0 -170 -1 -170 -20z m346 -49 c75 -34 105 -102
105 -238 0 -174 -63 -263 -185 -263 l-46 0 0 253 c0 140 3 257 7 260 13 13 78
6 119 -12z"/>
<path d="M1605 1054 c-63 -109 -75 -138 -64 -145 8 -5 83 -9 167 -9 126 0 154
3 158 15 3 8 -15 52 -41 97 -81 142 -106 178 -125 178 -12 0 -41 -42 -95 -136z"/>
<path d="M11447 1108 c-101 -169 -137 -235 -137 -253 0 -17 57 -25 191 -25
161 0 161 0 90 125 -89 159 -99 175 -115 175 -9 0 -22 -10 -29 -22z"/>
<path d="M869 694 c-9 -3 -27 -25 -40 -49 -19 -36 -21 -47 -11 -57 10 -10 188
-13 799 -16 751 -4 787 -4 800 14 16 23 17 65 1 86 -12 15 -88 17 -773 22
-418 3 -767 3 -776 0z"/>
<path d="M10752 618 c-16 -16 -15 -70 1 -91 11 -15 84 -17 810 -23 780 -7 797
-7 797 12 0 10 -11 37 -23 59 l-23 40 -219 6 c-424 12 -1330 10 -1343 -3z"/>
</g>
</svg>
