<?xml version="1.0" standalone="no"?>
<!DOCTYPE svg PUBLIC "-//W3C//DTD SVG 20010904//EN"
 "http://www.w3.org/TR/2001/REC-SVG-20010904/DTD/svg10.dtd">
<svg version="1.0" xmlns="http://www.w3.org/2000/svg"
 width="225.000000pt" height="225.000000pt" viewBox="0 0 225.000000 225.000000"
 preserveAspectRatio="xMidYMid meet">

<g transform="translate(0.000000,225.000000) scale(0.100000,-0.100000)"
fill="#000000" stroke="none">
<path d="M1116 1854 c-9 -23 -8 -24 14 -24 23 0 26 13 6 29 -11 9 -15 8 -20
-5z"/>
<path d="M947 1503 c-16 -3 -30 -10 -32 -16 -5 -15 -45 -274 -45 -293 0 -8 7
-14 15 -14 8 0 15 -4 15 -10 0 -16 71 -24 80 -9 5 7 6 17 3 23 -3 5 -1 6 4 3
6 -4 46 -4 89 0 53 4 72 9 59 14 -14 6 -9 8 18 6 21 0 40 -4 43 -8 2 -4 -4 -6
-13 -5 -9 2 -28 -3 -42 -11 -15 -7 -42 -13 -62 -13 -65 0 -98 -18 -108 -58 -6
-21 -31 -121 -57 -225 l-47 -187 -44 -11 c-36 -10 -52 -22 -88 -69 l-44 -57
-83 -15 c-79 -15 -54 -16 507 -16 547 0 584 2 513 15 l-76 15 -42 59 c-36 51
-47 60 -81 65 -44 7 -52 17 -68 89 -6 28 -26 117 -46 200 -19 82 -35 155 -35
162 0 7 11 13 24 13 14 0 31 7 40 15 8 8 19 15 25 15 6 0 11 6 11 13 0 17 -40
300 -43 303 -1 1 -20 4 -42 6 l-40 3 -3 -55 -3 -56 -34 4 c-33 4 -34 6 -41 58
l-6 54 -43 0 -43 0 -7 -55 c-4 -32 -11 -55 -18 -55 -7 0 -22 -3 -34 -6 -21 -6
-22 -2 -25 52 -3 60 -6 63 -51 57z m126 -150 c-13 -2 -35 -2 -50 0 -16 2 -5 4
22 4 28 0 40 -2 28 -4z m25 -150 c-10 -2 -26 -2 -35 0 -10 3 -2 5 17 5 19 0
27 -2 18 -5z m-48 -47 c0 -2 -7 -7 -16 -10 -8 -3 -12 -2 -9 4 6 10 25 14 25 6z
m30 -291 c0 -13 -24 -54 -29 -50 -4 2 -13 0 -21 -5 -11 -7 -8 -11 14 -20 24
-9 27 -14 21 -38 -4 -15 -7 -27 -8 -28 -1 -1 -34 -4 -74 -7 -59 -5 -71 -3 -69
9 1 8 15 21 29 29 15 8 25 10 23 6 -3 -4 7 -6 22 -3 19 4 22 7 10 10 -22 4
-23 16 -4 31 8 7 18 26 21 42 5 24 12 29 36 29 16 0 29 -2 29 -5z m193 -72
c-7 -2 -19 -2 -25 0 -7 3 -2 5 12 5 14 0 19 -2 13 -5z m-188 -93 c-18 -8 -18
-9 5 -10 18 -2 20 -4 8 -7 -10 -2 -18 -9 -18 -14 0 -5 -7 -9 -15 -9 -8 0 -15
4 -15 9 0 9 -18 8 -66 -3 -27 -7 -32 -14 -40 -54 l-9 -47 -70 -2 c-58 -3 -67
-1 -54 10 9 7 29 36 44 65 28 54 37 59 110 64 104 7 140 7 120 -2z"/>
<path d="M535 435 c0 -36 3 -65 8 -65 4 0 7 27 7 60 0 47 3 60 15 60 21 0 31
-29 17 -50 -9 -15 -6 -23 13 -44 13 -14 32 -26 43 -26 15 0 17 6 14 35 -4 34
-3 35 32 35 34 0 36 -1 36 -35 0 -19 5 -35 10 -35 6 0 10 28 10 65 0 37 -4 65
-10 65 -5 0 -10 -11 -10 -25 0 -22 -4 -25 -36 -25 -33 0 -36 2 -32 25 3 15 1
25 -6 25 -7 0 -10 -21 -8 -60 4 -65 -6 -75 -32 -35 -13 20 -14 28 -4 44 16 26
-4 51 -41 51 -25 0 -26 -1 -26 -65z"/>
<path d="M771 474 c-12 -15 -21 -32 -21 -39 0 -27 41 -65 68 -64 24 2 24 2 5
6 -26 5 -53 39 -53 65 0 10 9 27 20 38 11 11 16 20 11 20 -5 0 -19 -12 -30
-26z"/>
<path d="M837 490 c28 -11 39 -53 24 -88 l-11 -27 20 24 c11 13 20 32 20 42 0
24 -35 59 -57 58 -14 0 -13 -2 4 -9z"/>
<path d="M900 435 l0 -65 34 0 c38 0 71 24 81 57 9 33 -34 73 -80 73 l-35 0 0
-65z m84 33 c30 -42 9 -88 -40 -88 -22 0 -24 3 -24 55 0 52 1 55 24 55 14 0
32 -10 40 -22z"/>
<path d="M1030 435 l0 -65 53 1 c80 2 102 34 52 77 -28 24 -24 47 6 39 11 -3
19 -1 19 5 0 5 -12 8 -27 6 -38 -4 -41 -33 -7 -69 22 -23 25 -32 16 -41 -10
-10 -17 -10 -32 0 -12 7 -21 8 -25 2 -3 -6 -13 -10 -21 -10 -10 0 -14 14 -14
56 0 51 2 56 20 51 11 -3 20 -1 20 4 0 5 -13 9 -30 9 l-30 0 0 -65z"/>
<path d="M1210 435 c0 -37 4 -65 10 -65 6 0 10 28 10 65 0 37 -4 65 -10 65 -6
0 -10 -28 -10 -65z"/>
<path d="M1257 493 c-14 -13 -6 -38 19 -64 28 -29 24 -54 -7 -46 -11 3 -19 1
-19 -4 0 -5 6 -9 14 -9 51 0 62 42 21 80 -19 18 -22 26 -14 37 11 13 -2 19
-14 6z"/>
<path d="M1295 490 c3 -5 8 -10 11 -10 2 0 4 5 4 10 0 6 -5 10 -11 10 -5 0 -7
-4 -4 -10z"/>
<path d="M1330 435 l0 -65 35 0 c29 0 36 4 41 25 4 16 13 25 25 25 12 0 23
-10 29 -25 6 -15 17 -25 30 -25 17 0 20 7 20 48 l1 47 40 -43 c23 -24 42 -42
44 -40 8 10 12 118 4 118 -5 0 -9 -21 -9 -47 l0 -47 -50 49 -50 49 0 -64 -1
-65 -24 59 c-14 33 -27 61 -29 63 -2 2 -13 -23 -26 -57 -16 -44 -27 -60 -41
-60 -17 0 -19 8 -19 60 0 33 -4 60 -10 60 -6 0 -10 -28 -10 -65z m109 -4 c-15
-5 -22 6 -14 19 6 9 10 9 16 -1 5 -8 4 -15 -2 -18z"/>
<path d="M1630 435 l0 -65 38 1 c30 2 32 3 10 6 -27 4 -28 7 -28 59 0 51 1 54
25 54 38 0 62 -43 47 -84 l-11 -31 19 24 c26 31 25 47 -5 76 -16 17 -35 25
-60 25 l-35 0 0 -65z"/>
<path d="M1860 451 c-14 -27 -9 -34 18 -29 19 3 19 5 8 27 l-13 24 -13 -22z"/>
<path d="M366 444 c-9 -23 -8 -24 19 -24 23 0 24 2 15 20 -13 24 -26 26 -34 4z"/>
<path d="M250 380 c0 -6 47 -10 120 -10 73 0 120 4 120 10 0 6 -47 10 -120 10
-73 0 -120 -4 -120 -10z"/>
<path d="M1760 380 c0 -6 49 -10 126 -10 81 0 123 4 119 10 -4 6 -57 10 -126
10 -73 0 -119 -4 -119 -10z"/>
</g>
</svg>
